<svg width="24" height="24" viewBox="0 0 24 24" fill="none" xmlns="http://www.w3.org/2000/svg">
<path d="M10.7143 3.42859C8.72159 3.42859 6.87425 4.07826 5.38226 5.17761H5.37933C3.15653 6.8165 1.71429 9.45901 1.71429 12.4286C1.71429 17.3908 5.75209 21.4286 10.7143 21.4286C13.8415 21.4286 16.6006 19.8225 18.2143 17.3944V21.4286H19.7143V12.3876C21.4305 12.0278 22.7143 10.4551 22.7143 8.60828C22.7143 7.55513 22.3421 6.37946 21.727 5.37683C21.1119 4.37421 20.2002 3.46667 18.9672 3.46667C17.7554 3.46667 16.8549 4.34516 16.2397 5.32703C14.7135 4.13824 12.7935 3.42859 10.7143 3.42859ZM10.7143 4.92859C12.5758 4.92859 14.2552 5.62223 15.5659 6.74207C15.3468 7.368 15.2148 8.00732 15.2143 8.60828C15.2127 10.4548 16.4999 12.0251 18.2143 12.3876V12.4286C18.2143 16.5804 14.8661 19.9286 10.7143 19.9286C6.5625 19.9286 3.21429 16.5804 3.21429 12.4286C3.21429 9.94416 4.41576 7.75176 6.26996 6.38464C7.51398 5.468 9.047 4.92859 10.7143 4.92859ZM18.9672 4.96667C19.3932 4.96667 19.9773 5.39686 20.4467 6.16199C20.9161 6.92711 21.2143 7.94543 21.2143 8.60828C21.2143 9.9331 20.2015 10.9678 18.9643 10.9667C17.7254 10.9656 16.7131 9.93524 16.7143 8.61121C16.7149 7.94823 17.0119 6.92723 17.4819 6.16199C17.9518 5.39674 18.5412 4.96667 18.9672 4.96667ZM9.9848 6.47839C9.94255 6.47874 9.90041 6.48267 9.85883 6.49011C8.85848 6.634 7.93438 7.02192 7.15765 7.5946C5.676 8.68743 4.71429 10.4507 4.71429 12.4286C4.71429 15.7334 7.40947 18.4286 10.7143 18.4286C12.3881 18.4286 13.9123 17.7389 15.0004 16.6268C15.0713 16.5568 15.1274 16.4735 15.1657 16.3815C15.204 16.2896 15.2236 16.191 15.2233 16.0914C15.2231 15.9918 15.203 15.8933 15.1643 15.8015C15.1255 15.7098 15.0689 15.6267 14.9977 15.5571C14.9265 15.4874 14.8422 15.4327 14.7496 15.396C14.6571 15.3593 14.5581 15.3414 14.4586 15.3433C14.359 15.3453 14.2608 15.367 14.1698 15.4073C14.0787 15.4476 13.9966 15.5056 13.9282 15.578C13.1113 16.4129 11.9775 16.9286 10.7143 16.9286C8.22012 16.9286 6.21429 14.9228 6.21429 12.4286C6.21429 10.9355 6.93493 9.62281 8.04828 8.80164C8.63055 8.37232 9.3181 8.08065 10.0698 7.97253C10.2582 7.94865 10.4306 7.85417 10.5521 7.70815C10.6735 7.56214 10.7351 7.37547 10.7243 7.18583C10.7135 6.99619 10.6312 6.8177 10.494 6.6864C10.3567 6.55509 10.1747 6.48076 9.9848 6.47839Z" fill="#1C0F13"/>
</svg>
