<svg width="22" height="30" viewBox="0 0 22 30" fill="none" xmlns="http://www.w3.org/2000/svg">
<path d="M17.6347 0.55584C13.25 -0.18528 8.74998 -0.18528 4.36534 0.55584C2.76348 0.826596 1.4878 2.06647 1.16662 3.67411C-0.304785 11.039 -0.385068 18.6176 0.929977 26.0126L1.46538 29.0233C1.63047 29.9516 2.753 30.3227 3.4312 29.6731L9.89378 23.4831C10.5137 22.8894 11.4863 22.8894 12.1062 23.4831L18.5688 29.6731C19.247 30.3227 20.3695 29.9516 20.5346 29.0233L21.07 26.0126C22.3851 18.6176 22.3048 11.039 20.8334 3.67411C20.5122 2.06647 19.2365 0.826596 17.6347 0.55584Z" fill="black"/>
</svg>
