<svg width="30" height="30" viewBox="0 0 30 30" fill="none" xmlns="http://www.w3.org/2000/svg">
<path d="M10.3081 15C10.3081 12.4087 12.4087 10.3081 15 10.3081C17.5912 10.3081 19.6919 12.4087 19.6919 15C19.6919 17.5913 17.5912 19.6919 15 19.6919C12.4087 19.6919 10.3081 17.5913 10.3081 15Z" fill="black"/>
<path fill-rule="evenodd" clip-rule="evenodd" d="M14.2215 0.330282C14.6471 -0.110094 15.3529 -0.110094 15.7785 0.330282L19.4921 4.17256H24.7447C25.3427 4.17256 25.8274 4.65732 25.8274 5.2553V10.5079L29.6697 14.2215C30.1101 14.6471 30.1101 15.3529 29.6697 15.7785L25.8274 19.4921V24.7447C25.8274 25.3427 25.3427 25.8274 24.7447 25.8274H19.4921L15.7785 29.6697C15.3529 30.1101 14.6471 30.1101 14.2215 29.6697L10.5079 25.8274H5.2553C4.65732 25.8274 4.17256 25.3427 4.17256 24.7447V19.4921L0.330282 15.7785C-0.110093 15.3529 -0.110094 14.6471 0.33028 14.2215L4.17256 10.5079V5.2553C4.17256 4.65732 4.65732 4.17256 5.2553 4.17256H10.5079L14.2215 0.330282ZM15 8.14262C11.2128 8.14262 8.14261 11.2128 8.14261 15C8.14261 18.7872 11.2128 21.8574 15 21.8574C18.7872 21.8574 21.8574 18.7872 21.8574 15C21.8574 11.2128 18.7872 8.14262 15 8.14262Z" fill="black"/>
</svg>
