<svg width="10" height="11" viewBox="0 0 10 11" fill="none" xmlns="http://www.w3.org/2000/svg">
<path d="M9.7437 1.64316C10.0854 1.26726 10.0854 0.657817 9.7437 0.281922C9.40198 -0.0939739 8.84793 -0.0939739 8.50621 0.281922L5 4.13876L1.49379 0.281922C1.15207 -0.093973 0.598026 -0.0939734 0.256303 0.281922C-0.0854198 0.657817 -0.0854196 1.26726 0.256303 1.64316L3.76251 5.49999L0.256292 9.35684C-0.0854305 9.73273 -0.0854308 10.3422 0.256292 10.7181C0.598015 11.094 1.15206 11.094 1.49378 10.7181L5 6.86123L8.50622 10.7181C8.84794 11.094 9.40199 11.094 9.74371 10.7181C10.0854 10.3422 10.0854 9.73274 9.74371 9.35684L6.23749 5.49999L9.7437 1.64316Z" fill="black"/>
</svg>
