<svg width="31" height="30" viewBox="0 0 31 30" fill="none" xmlns="http://www.w3.org/2000/svg">
<path fill-rule="evenodd" clip-rule="evenodd" d="M26.4905 3.89037C23.7062 1.10604 19.1919 1.10604 16.4076 3.89037L12.9401 7.35787C12.5496 7.74839 12.5496 8.38156 12.9401 8.77208C13.3306 9.1626 13.9638 9.1626 14.3543 8.77208L17.8218 5.30458C19.8251 3.30131 23.073 3.30131 25.0763 5.30458C27.0796 7.30787 27.0796 10.5558 25.0763 12.5591L21.6088 16.0266C21.2183 16.4171 21.2183 17.0503 21.6088 17.4408C21.9993 17.8313 22.6325 17.8313 23.023 17.4408L26.4905 13.9733C29.2748 11.1889 29.2748 6.6747 26.4905 3.89037L25.9437 4.4372L26.4905 3.89037ZM9.15302 13.9733C9.54354 13.5827 9.54354 12.9496 9.15301 12.5591C8.76248 12.1685 8.12932 12.1685 7.7388 12.5591L4.27136 16.0266L4.27135 16.0266C1.48702 18.8109 1.48703 23.3253 4.27135 26.1096C7.05568 28.8939 11.57 28.8939 14.3543 26.1096L17.8218 22.6421C18.2123 22.2516 18.2123 21.6184 17.8218 21.2279C17.4313 20.8373 16.7981 20.8373 16.4076 21.2279L12.9401 24.6954C10.9368 26.6986 7.68885 26.6986 5.68556 24.6954C3.68229 22.6921 3.68229 19.444 5.68557 17.4408L5.68558 17.4408L9.15302 13.9733ZM19.3679 11.9363C19.7584 11.5458 19.7584 10.9127 19.3679 10.5221C18.9773 10.1316 18.3442 10.1316 17.9536 10.5221L10.9031 17.5727C10.5126 17.9632 10.5126 18.5964 10.9031 18.9869C11.2936 19.3774 11.9268 19.3774 12.3173 18.9869L19.3679 11.9363Z" fill="black"/>
</svg>
