<svg width="30" height="30" viewBox="0 0 30 30" fill="none" xmlns="http://www.w3.org/2000/svg">
<path d="M15.2038 21.0089C17.0867 21.0089 18.9274 20.4479 20.4931 19.3969C22.0587 18.3459 23.279 16.8521 23.9996 15.1044C24.7202 13.3566 24.9087 11.4335 24.5414 9.5781C24.174 7.72271 23.2673 6.01843 21.9358 4.68077C20.6043 3.34311 18.9079 2.43215 17.0611 2.06309C15.2143 1.69403 13.3001 1.88345 11.5604 2.60738C9.82075 3.33132 8.33385 4.55726 7.28772 6.13018C6.24158 7.7031 5.68321 9.55236 5.68321 11.4441C5.68636 13.9799 6.69043 16.4109 8.4752 18.2039C10.26 19.997 12.6797 21.0057 15.2038 21.0089ZM15.2038 3.79226C16.7101 3.79226 18.1827 4.24104 19.4352 5.08183C20.6877 5.92262 21.664 7.11768 22.2404 8.51586C22.8169 9.91405 22.9677 11.4526 22.6739 12.9369C22.38 14.4212 21.6546 15.7846 20.5894 16.8548C19.5242 17.9249 18.1671 18.6536 16.6897 18.9489C15.2122 19.2441 13.6808 19.0926 12.2891 18.5135C10.8974 17.9343 9.70783 16.9536 8.87092 15.6952C8.03402 14.4369 7.58732 12.9575 7.58732 11.4441C7.59047 9.41567 8.39393 7.47124 9.8216 6.03693C11.2493 4.60261 13.1847 3.79543 15.2038 3.79226ZM16.1558 24.7989V26.7477H19.012C19.2645 26.7477 19.5066 26.8485 19.6852 27.0279C19.8637 27.2073 19.964 27.4506 19.964 27.7042C19.964 27.9579 19.8637 28.2012 19.6852 28.3806C19.5066 28.5599 19.2645 28.6607 19.012 28.6607H11.3955C11.143 28.6607 10.9009 28.5599 10.7223 28.3806C10.5438 28.2012 10.4435 27.9579 10.4435 27.7042C10.4435 27.4506 10.5438 27.2073 10.7223 27.0279C10.9009 26.8485 11.143 26.7477 11.3955 26.7477H14.2517V24.7989C11.7034 24.6155 9.26117 23.7 7.21599 22.1617C5.17081 20.6233 3.6088 18.5269 2.71598 16.1219C1.82316 13.717 1.63715 11.1049 2.18009 8.5968C2.72303 6.08867 3.97206 3.79015 5.77842 1.97496C5.86502 1.87894 5.97013 1.8016 6.08738 1.74763C6.20463 1.69366 6.33157 1.66418 6.46051 1.661C6.58944 1.65781 6.71767 1.68097 6.83742 1.72908C6.95717 1.77718 7.06595 1.84923 7.15714 1.94085C7.24834 2.03247 7.32006 2.14175 7.36794 2.26206C7.41582 2.38237 7.43888 2.5112 7.4357 2.64073C7.43253 2.77026 7.40319 2.89779 7.34947 3.01558C7.29575 3.13338 7.21877 3.23898 7.1232 3.32598C4.9801 5.47904 3.77612 8.39921 3.77612 11.4441C3.77612 14.489 4.9801 17.4091 7.1232 19.5622C9.2663 21.7153 12.173 22.9248 15.2038 22.9248C18.2346 22.9248 21.1412 21.7153 23.2843 19.5622C23.4654 19.3973 23.7027 19.3088 23.947 19.3148C24.1913 19.3209 24.424 19.4211 24.5968 19.5947C24.7696 19.7683 24.8693 20.002 24.8754 20.2475C24.8814 20.4929 24.7932 20.7313 24.6291 20.9132C22.3642 23.1936 19.3545 24.5738 16.1558 24.7989Z" fill="black"/>
</svg>
