<svg width="16" height="20" viewBox="0 0 16 20" fill="none" xmlns="http://www.w3.org/2000/svg">
<path fill-rule="evenodd" clip-rule="evenodd" d="M11.7994 1.95467C9.0236 1.48932 6.17398 1.48932 3.39822 1.95467C2.87584 2.04224 2.46095 2.44357 2.35682 2.96053C1.40941 7.664 1.35771 12.504 2.20445 17.2266L2.37952 18.203L6.30859 14.4704C7.0316 13.7836 8.16599 13.7836 8.889 14.4704L12.8181 18.203L12.9931 17.2266C13.8399 12.504 13.7882 7.664 12.8408 2.96053C12.7366 2.44357 12.3217 2.04224 11.7994 1.95467ZM3.13274 0.371111C6.08426 -0.123704 9.11332 -0.123704 12.0648 0.371111C13.2415 0.568371 14.1788 1.47162 14.4148 2.64347C15.4021 7.5449 15.456 12.5886 14.5736 17.51L14.3365 18.8323C14.1375 19.9422 12.7844 20.3858 11.9669 19.6092L7.78311 15.6345C7.67982 15.5364 7.51777 15.5364 7.41448 15.6345L3.23065 19.6092C2.41316 20.3858 1.06008 19.9422 0.861088 18.8323L0.624003 17.51C-0.258376 12.5886 -0.204507 7.5449 0.782786 2.64347C1.01883 1.47162 1.9561 0.568371 3.13274 0.371111Z" fill="black"/>
</svg>
