<svg width="30" height="30" viewBox="0 0 30 30" fill="none" xmlns="http://www.w3.org/2000/svg">
<path d="M10.8521 1.98828C11.2176 1.35436 11.0007 0.543778 10.3676 0.177787C9.73461 -0.188204 8.92515 0.0289916 8.55967 0.662907L5.63046 5.7435H3.52941C1.58017 5.7435 0 7.32587 0 9.27782C0 10.5431 0.663943 11.6531 1.66198 12.2774C1.76361 12.341 1.88229 12.3704 2.00213 12.3704H27.9979C28.1177 12.3704 28.2364 12.341 28.338 12.2774C29.3361 11.6531 30 10.5431 30 9.27782C30 7.32587 28.4198 5.7435 26.4706 5.7435H24.3695L21.4403 0.662907C21.0748 0.0289916 20.2654 -0.188204 19.6324 0.177787C18.9993 0.543778 18.7824 1.35436 19.1479 1.98828L21.313 5.7435H8.68702L10.8521 1.98828Z" fill="black"/>
<path fill-rule="evenodd" clip-rule="evenodd" d="M27.9437 15.4356C27.9817 15.2193 27.8155 15.0211 27.5961 15.0211H2.4039C2.18457 15.0211 2.01835 15.2193 2.05628 15.4356L3.82189 25.5059C4.18919 27.6008 5.86396 29.2193 7.9677 29.5124C12.6334 30.1625 17.3666 30.1625 22.0323 29.5124C24.1361 29.2193 25.8108 27.6008 26.1781 25.5059L27.9437 15.4356ZM12.7941 18.9972C12.7941 18.2652 12.2016 17.6718 11.4706 17.6718C10.7396 17.6718 10.1471 18.2652 10.1471 18.9972V22.5315C10.1471 23.2635 10.7396 23.8569 11.4706 23.8569C12.2016 23.8569 12.7941 23.2635 12.7941 22.5315V18.9972ZM18.5294 17.6718C19.2604 17.6718 19.8529 18.2652 19.8529 18.9972V22.5315C19.8529 23.2635 19.2604 23.8569 18.5294 23.8569C17.7984 23.8569 17.2059 23.2635 17.2059 22.5315V18.9972C17.2059 18.2652 17.7984 17.6718 18.5294 17.6718Z" fill="black"/>
</svg>
