<svg width="30" height="30" viewBox="0 0 30 30" fill="none" xmlns="http://www.w3.org/2000/svg">
<path d="M15 1.5C15.5202 1.5 15.9419 1.92169 15.9419 2.44186V3.69767C15.9419 4.21785 15.5202 4.63953 15 4.63953C14.4798 4.63953 14.0581 4.21785 14.0581 3.69767V2.44186C14.0581 1.92169 14.4798 1.5 15 1.5Z" fill="black"/>
<path fill-rule="evenodd" clip-rule="evenodd" d="M7.77907 15C7.77907 11.012 11.012 7.77907 15 7.77907C18.988 7.77907 22.2209 11.012 22.2209 15C22.2209 18.988 18.988 22.2209 15 22.2209C11.012 22.2209 7.77907 18.988 7.77907 15ZM15 9.66279C12.0523 9.66279 9.66279 12.0523 9.66279 15C9.66279 17.9477 12.0523 20.3372 15 20.3372C17.9477 20.3372 20.3372 17.9477 20.3372 15C20.3372 12.0523 17.9477 9.66279 15 9.66279Z" fill="black"/>
<path d="M6.78607 5.45409C6.41825 5.08627 5.8219 5.08627 5.45408 5.45409C5.08626 5.82191 5.08626 6.41826 5.45408 6.78608L6.34207 7.67407C6.70989 8.04189 7.30624 8.04189 7.67406 7.67407C8.04188 7.30625 8.04188 6.7099 7.67406 6.34208L6.78607 5.45409Z" fill="black"/>
<path d="M28.5 15C28.5 15.5202 28.0783 15.9419 27.5581 15.9419H26.3023C25.7822 15.9419 25.3605 15.5202 25.3605 15C25.3605 14.4798 25.7822 14.0581 26.3023 14.0581H27.5581C28.0783 14.0581 28.5 14.4798 28.5 15Z" fill="black"/>
<path d="M24.5459 6.78607C24.9137 6.41825 24.9137 5.8219 24.5459 5.45408C24.1781 5.08626 23.5817 5.08626 23.2139 5.45408L22.3259 6.34207C21.9581 6.70989 21.9581 7.30624 22.3259 7.67406C22.6937 8.04188 23.2901 8.04188 23.6579 7.67406L24.5459 6.78607Z" fill="black"/>
<path d="M15 25.3605C15.5202 25.3605 15.9419 25.7822 15.9419 26.3023V27.5581C15.9419 28.0783 15.5202 28.5 15 28.5C14.4798 28.5 14.0581 28.0783 14.0581 27.5581V26.3023C14.0581 25.7822 14.4798 25.3605 15 25.3605Z" fill="black"/>
<path d="M23.658 22.3259C23.2902 21.9581 22.6938 21.9581 22.326 22.3259C21.9582 22.6938 21.9582 23.2901 22.326 23.6579L23.214 24.5459C23.5818 24.9138 24.1782 24.9138 24.546 24.5459C24.9138 24.1781 24.9138 23.5818 24.546 23.2139L23.658 22.3259Z" fill="black"/>
<path d="M4.63953 15C4.63953 15.5202 4.21785 15.9419 3.69767 15.9419H2.44186C1.92169 15.9419 1.5 15.5202 1.5 15C1.5 14.4798 1.92169 14.0581 2.44186 14.0581H3.69767C4.21785 14.0581 4.63953 14.4798 4.63953 15Z" fill="black"/>
<path d="M7.67398 23.6579C8.0418 23.2901 8.0418 22.6938 7.67398 22.3259C7.30616 21.9581 6.70981 21.9581 6.34199 22.3259L5.45399 23.2139C5.08617 23.5817 5.08617 24.1781 5.45399 24.5459C5.82181 24.9137 6.41816 24.9137 6.78598 24.5459L7.67398 23.6579Z" fill="black"/>
</svg>
