<svg width="30" height="30" viewBox="0 0 30 30" fill="none" xmlns="http://www.w3.org/2000/svg">
<path fill-rule="evenodd" clip-rule="evenodd" d="M14.3477 5.49498C9.38981 5.84133 5.47559 9.96452 5.47559 15C5.47559 20.2625 9.75068 24.5286 15.0243 24.5286C19.2492 24.5286 22.834 21.7899 24.092 17.9948C23.1238 18.394 22.0628 18.6143 20.951 18.6143C16.4048 18.6143 12.7194 14.9366 12.7194 10.4C12.7194 8.56113 13.3254 6.86337 14.3477 5.49498ZM3.5 15C3.5 8.64873 8.65959 3.5 15.0243 3.5C15.6164 3.5 16.1988 3.54465 16.768 3.63093C17.1617 3.69061 17.4811 3.98042 17.5778 4.36593C17.6746 4.75145 17.5299 5.15725 17.2109 5.39512C15.6818 6.53514 14.695 8.35245 14.695 10.4C14.695 13.8478 17.4959 16.6429 20.951 16.6429C22.4449 16.6429 23.8141 16.1216 24.8898 15.2506C25.1989 15.0003 25.6283 14.9596 25.9791 15.1473C26.3299 15.3351 26.5335 15.7146 26.4955 16.11C25.9352 21.941 21.0139 26.5 15.0243 26.5C8.65959 26.5 3.5 21.3513 3.5 15Z" fill="black"/>
</svg>
