<svg width="5014" height="1550" viewBox="0 0 5014 1550" fill="none" xmlns="http://www.w3.org/2000/svg">
<rect width="5014" height="1550" fill="url(#paint0_linear_170_1729)"/>
<g clip-path="url(#clip0_170_1729)">
<path d="M2013.18 813.087C2001.3 841.141 1982.39 865.65 1958.28 884.242C1934.17 902.835 1905.68 914.882 1875.55 919.218C1845.43 923.554 1814.7 920.032 1786.33 908.993C1757.97 897.954 1732.93 879.772 1713.64 856.205C1694.35 832.638 1681.46 804.485 1676.21 774.469C1670.97 744.453 1673.56 713.591 1683.72 684.868C1693.88 656.144 1711.27 630.533 1734.21 610.511C1757.15 590.49 1784.86 576.735 1814.67 570.579" stroke="white" stroke-width="40" stroke-miterlimit="10" stroke-linecap="round"/>
<path d="M1905.2 833.321C1887.32 847.082 1865.49 854.691 1842.94 855.013C1820.4 855.335 1798.36 848.353 1780.1 835.108C1761.84 821.862 1748.35 803.063 1741.63 781.514C1734.91 759.964 1735.33 736.818 1742.83 715.526" stroke="white" stroke-width="30" stroke-miterlimit="10" stroke-linecap="round"/>
<path d="M2121.1 495.149C2121.1 495.149 2067.53 489.607 2030.31 576.568C1993.09 663.528 2070.35 714.187 2100.89 716.902V923.071C2100.91 925.558 2101.44 928.014 2102.45 930.286C2103.46 932.558 2104.92 934.597 2106.76 936.275C2110.62 939.816 2115.67 941.769 2120.91 941.743C2123.53 941.745 2126.12 941.266 2128.56 940.329C2130.97 939.42 2133.18 938.042 2135.06 936.275C2136.91 934.569 2138.38 932.507 2139.41 930.212C2140.41 927.965 2140.93 925.532 2140.93 923.071V716.865C2140.93 716.865 2219.5 702.954 2221.02 622.949C2222.54 542.944 2155.34 490.983 2121.1 495.149ZM2133.32 675.691C2133.32 675.691 2127.63 677.365 2109.02 675.691C2090.41 674.017 2043.72 643.48 2066.01 590.664C2088.29 537.848 2121.1 541.233 2121.1 541.233C2141.86 538.741 2182.69 570.244 2181.76 618.783C2180.83 667.322 2133.17 675.616 2133.17 675.616L2133.32 675.691Z" fill="white"/>
<path d="M1099.85 539.782C1139.64 539.782 1171.56 550.035 1195.61 570.542C1219.66 591.048 1231.68 618.882 1231.68 654.044C1231.68 689.155 1219.46 716.58 1195.02 736.318C1170.97 755.659 1139.05 765.329 1099.25 765.329L1095.09 768.305H999.325V930.51H952V539.782H1099.85ZM1099.25 723.895C1127.24 723.895 1147.93 718.167 1161.32 706.711C1175.09 694.883 1181.99 677.327 1182.02 654.044C1182.04 630.76 1175.14 613.402 1161.32 601.971C1147.8 590.267 1127.11 584.415 1099.25 584.415H999.325V724.118L1099.25 723.895ZM1126.44 733.379L1255.34 930.51H1199.18L1086.81 759.415L1126.44 733.379ZM1450.11 936.424C1423.95 936.915 1398.11 930.651 1375.07 918.236C1353.36 905.987 1335.69 887.673 1324.21 865.531C1311.98 842.248 1305.88 814.624 1305.9 782.662C1305.93 750.7 1312.03 723.263 1324.21 700.351C1335.46 678.099 1352.92 659.596 1374.47 647.088C1396.66 634.613 1421.77 628.271 1447.21 628.714C1474.82 628.714 1498.27 634.64 1517.57 646.493C1536.94 657.952 1552.56 674.82 1562.51 695.032C1573 716.164 1578.27 739.504 1577.89 763.098C1577.89 769.83 1577.67 775.93 1577.3 781.472C1576.96 786.458 1576.36 791.424 1575.52 796.35H1336.58V754.32H1554.79L1530.53 759.044C1530.53 730.627 1522.64 708.719 1506.87 693.321C1491.54 677.922 1471.24 670.235 1445.98 670.26C1428.27 669.82 1410.8 674.55 1395.72 683.873C1381.35 693.223 1370.05 706.598 1363.22 722.333C1355.26 741.446 1351.46 762.038 1352.07 782.736C1351.57 803.46 1355.61 824.043 1363.92 843.029C1370.93 858.932 1382.38 872.459 1396.91 881.971C1412.75 890.955 1430.72 895.455 1448.92 894.989C1470.59 894.989 1488.12 890.848 1501.52 882.566C1515.27 874.332 1526.67 862.704 1534.65 848.794L1571.95 870.813C1556.56 898.046 1531.75 918.689 1502.19 928.836C1485.36 934.205 1467.77 936.817 1450.11 936.573V936.424ZM2272.36 1054.85V634.554H2313.74L2317.86 706.748L2311.36 698.491C2316.33 684.913 2324.21 672.587 2334.43 662.375C2344.91 651.535 2357.57 643.053 2371.58 637.492C2389.97 630.295 2409.76 627.407 2429.44 629.051C2449.12 630.695 2468.16 636.827 2485.1 646.977C2506.06 659.653 2523.09 677.913 2534.28 699.718C2546.52 722.655 2552.63 750.303 2552.63 782.662C2552.63 814.6 2546.33 842.223 2533.73 865.531C2522.56 887.313 2505.57 905.56 2484.65 918.236C2464.29 930.43 2440.96 936.774 2417.23 936.573C2394.48 937.044 2372.09 930.88 2352.78 918.831C2335.52 907.619 2321.95 891.547 2313.78 872.635L2319.68 863.746V1055L2272.36 1054.85ZM2412.48 894.915C2441.65 894.915 2464.31 884.649 2480.46 864.118C2497.02 843.636 2505.31 816.36 2505.31 782.29C2505.31 748.22 2497.22 720.944 2481.05 700.462C2465.3 679.931 2443.01 669.678 2414.19 669.702C2396.58 669.314 2379.27 674.267 2364.52 683.911C2349.94 693.449 2338.43 707.014 2331.39 722.965C2323.09 741.575 2319.05 761.806 2319.57 782.178C2319.13 802.466 2322.92 822.623 2330.72 841.355C2337.75 857.303 2349.01 871.025 2363.26 881.041C2377.94 890.457 2395.05 895.358 2412.48 895.138V894.915ZM2688 498.496V855.563C2688 870.441 2690.75 880.893 2696.24 886.918C2701.74 892.944 2710.62 895.708 2722.88 895.213C2729.43 895.341 2735.97 894.743 2742.38 893.427C2749.4 891.659 2756.31 889.485 2763.07 886.918L2755.38 928.353C2748.75 931.155 2741.78 933.069 2734.66 934.044C2727.07 935.645 2719.34 936.443 2711.59 936.424C2687.56 936.424 2669.64 929.915 2657.8 916.897C2646.36 903.879 2640.64 883.943 2640.64 857.088V498.496H2688ZM2947.36 936.573C2921.11 937.057 2895.19 930.74 2872.1 918.236C2850.4 905.977 2832.73 887.666 2821.24 865.531C2809.01 842.248 2802.91 814.624 2802.93 782.662C2802.96 750.7 2809.06 723.263 2821.24 700.351C2832.49 678.099 2849.96 659.596 2871.51 647.088C2893.69 634.613 2918.8 628.271 2944.24 628.714C2971.83 628.714 2995.28 634.64 3014.6 646.493C3033.97 657.952 3049.59 674.82 3059.54 695.032C3070.03 716.164 3075.3 739.504 3074.92 763.098C3074.92 769.83 3074.7 775.93 3074.33 781.472C3073.99 786.458 3073.39 791.424 3072.55 796.35H2833.84V754.32H3052L3027.75 759.044C3027.75 730.627 3019.87 708.719 3004.12 693.321C2988.37 677.922 2968.06 670.235 2943.2 670.26C2925.48 669.82 2908.02 674.55 2892.94 683.873C2878.57 693.223 2867.27 706.598 2860.44 722.333C2852.48 741.446 2848.68 762.038 2849.29 782.736C2848.74 803.445 2852.72 824.023 2860.96 843.029C2868.01 858.956 2879.53 872.486 2894.13 881.971C2909.96 890.955 2927.94 895.455 2946.13 894.989C2967.79 894.989 2985.36 890.861 2998.73 882.566C3012.48 874.332 3023.89 862.704 3031.87 848.794L3069.02 870.701C3053.63 897.948 3028.79 918.595 2999.22 928.725C2982.46 934.114 2964.95 936.764 2947.36 936.573ZM3337.66 739.442C3337.66 717.349 3331.76 700.375 3319.95 688.523C3308.11 676.273 3291.35 670.161 3269.69 670.186C3251.4 669.6 3233.34 674.328 3217.68 683.799C3203.49 692.478 3193.05 706.686 3186.36 726.424L3147.92 702.731C3155.91 680.468 3171.33 661.644 3191.56 649.431C3212.86 635.62 3239.27 628.714 3270.8 628.714C3290.68 628.403 3310.41 632.201 3328.75 639.872C3345.45 646.445 3359.72 658.018 3369.61 673.013C3379.86 687.618 3384.99 706.562 3384.99 729.846V873.119C3384.99 887.327 3392.42 894.431 3407.28 894.431C3414.67 894.458 3422.04 893.456 3429.16 891.456L3426.82 928.65C3417.15 932.954 3406.63 934.978 3396.06 934.564C3385.45 934.749 3374.93 932.524 3365.3 928.055C3356.38 923.872 3348.96 917.058 3344.02 908.528C3338.58 898.141 3335.93 886.515 3336.33 874.793V868.879L3348.18 870.627C3343.89 885.328 3335.47 898.484 3323.92 908.528C3312.56 917.974 3299.53 925.203 3285.51 929.841C3271.94 934.164 3257.81 936.433 3243.57 936.573C3227.06 936.7 3210.67 933.684 3195.28 927.683C3181.03 922.305 3168.55 913.089 3159.21 901.052C3150.24 887.799 3145.69 872.046 3146.21 856.047C3145.87 845.946 3147.64 835.885 3151.41 826.509C3155.18 817.133 3160.86 808.647 3168.09 801.594C3182.95 786.989 3203.64 777.071 3230.16 771.839L3347.25 748.741V787.832L3251.93 807.582C3232.61 811.525 3218.22 817.055 3208.76 824.171C3204.14 827.58 3200.42 832.078 3197.95 837.269C3195.47 842.459 3194.31 848.181 3194.57 853.927C3194.47 859.714 3195.69 865.448 3198.15 870.685C3200.61 875.922 3204.24 880.522 3208.76 884.129C3218.67 891.568 3232.48 895.287 3250.18 895.287C3261.15 895.344 3272.08 893.956 3282.69 891.158C3292.84 888.232 3302.44 883.617 3311.07 877.508C3319.21 871.381 3325.88 863.5 3330.57 854.447C3335.5 844.099 3337.93 832.733 3337.66 821.27V739.442ZM3606.35 936.573C3578.67 936.834 3551.32 930.551 3526.52 918.236C3503.22 906.772 3483.83 888.652 3470.8 866.164L3510.99 837.152C3519.19 854.755 3532.34 869.572 3548.85 879.777C3567.33 890.443 3588.4 895.773 3609.73 895.175C3630.66 895.175 3647.03 891.233 3658.84 883.347C3664.26 879.964 3668.74 875.251 3671.84 869.654C3674.94 864.057 3676.56 857.761 3676.56 851.36C3676.53 843.173 3673.59 835.262 3668.27 829.044C3663.15 821.927 3653.11 816.794 3638.15 813.645L3567.16 798.767C3538.41 792.816 3517.72 782.898 3505.09 769.012C3492.71 754.766 3486.17 736.366 3486.77 717.497C3486.67 701.651 3491.42 686.154 3500.37 673.087C3510.51 659.115 3524.18 648.089 3539.97 641.137C3559.09 632.464 3579.91 628.206 3600.89 628.677C3630.06 628.677 3654.69 634.405 3674.78 645.861C3694.5 656.883 3710.23 673.874 3719.72 694.4L3680.12 720.436C3674.36 704.201 3662.76 690.7 3647.58 682.572C3633.35 674.478 3617.26 670.199 3600.89 670.149C3588.41 669.863 3575.98 671.867 3564.23 676.063C3555.19 679.411 3547.23 685.127 3541.16 692.614C3536.08 699.232 3533.37 707.367 3533.47 715.712C3533.54 724.591 3536.68 733.171 3542.35 740C3548.24 747.116 3559.27 752.249 3575.44 755.398L3649.37 770.76C3676.98 776.314 3696.3 785.402 3707.32 798.023C3718.4 810.795 3724.3 827.266 3723.85 844.182C3724.13 861.711 3718.94 878.891 3708.99 893.316C3698.45 907.661 3684.1 918.746 3667.57 925.303C3648.12 933.105 3627.3 936.936 3606.35 936.573ZM3935.29 936.573C3909.11 937.024 3883.25 930.709 3860.21 918.236C3838.51 905.987 3820.84 887.673 3809.36 865.531C3797.15 842.248 3791.05 814.624 3791.05 782.662C3791.05 750.7 3797.15 723.263 3809.36 700.351C3820.61 678.099 3838.07 659.596 3859.62 647.088C3881.8 634.618 3906.89 628.276 3932.32 628.714C3959.95 628.714 3983.48 634.64 4002.9 646.493C4022.26 657.954 4037.87 674.823 4047.81 695.032C4058.29 716.164 4063.57 739.504 4063.19 763.098C4063.19 769.83 4063 775.93 4062.59 781.472C4062.29 786.462 4061.69 791.43 4060.81 796.35H3821.95V754.32H4040.12L4015.9 759.044C4015.9 730.627 4008.01 708.719 3992.23 693.321C3976.86 677.922 3956.56 670.235 3931.35 670.26C3913.63 669.82 3896.17 674.55 3881.09 683.873C3866.72 693.223 3855.42 706.598 3848.59 722.333C3840.63 741.446 3836.83 762.038 3837.44 782.736C3836.88 803.442 3840.85 824.02 3849.07 843.029C3856.1 858.927 3867.56 872.452 3882.09 881.971C3897.92 890.971 3915.9 895.472 3934.1 894.989C3955.79 894.989 3973.34 890.848 3986.74 882.566C4000.47 874.319 4011.86 862.693 4019.83 848.794L4057.09 870.813C4041.71 898.046 4016.89 918.689 3987.33 928.836C3970.51 934.204 3952.94 936.816 3935.29 936.573Z" fill="white"/>
</g>
<defs>
<linearGradient id="paint0_linear_170_1729" x1="86.082" y1="-39.9164" x2="889.742" y2="2684.52" gradientUnits="userSpaceOnUse">
<stop stop-color="#1F1F1F"/>
<stop offset="1" stop-color="#373737"/>
</linearGradient>
<clipPath id="clip0_170_1729">
<rect width="3111" height="560" fill="white" transform="translate(952 495)"/>
</clipPath>
</defs>
</svg>
